<svg xmlns="http://www.w3.org/2000/svg" version="1.1" xmlns:xlink="http://www.w3.org/1999/xlink" xmlns:svgjs="http://svgjs.com/svgjs" width="3300" height="1192.498041028425"><svg xmlns="http://www.w3.org/2000/svg" xmlns:xlink="http://www.w3.org/1999/xlink" version="1.1" width="3300" height="1192.498041028425" viewBox="0 0 3300 1192.498041028425">
			
			<g transform="scale(14.999999999999998) translate(10, 10)">
				<defs id="SvgjsDefs1002"></defs><g id="SvgjsG1001" featurekey="ewgXDI-0" transform="matrix(1.1218308355924524,0,0,1.1218308355924524,-1.3461970562040058,-6.506619060408475)" fill="#1d6f42"><path d="M6.18 6 c3.14 0 5.22 1.9 5.22 4.82 c0 2.88 -2.08 4.6 -5.22 4.6 l-1.76 0 l0 4.58 l-3.22 0 l0 -14 l4.98 0 z M5.98 12.68 c1.3 0 2.2 -0.46 2.2 -1.86 c0 -1.38 -0.9 -1.86 -2.2 -1.86 l-1.56 0 l0 3.72 l1.56 0 z M21.1 20 l-2.86 -4.58 l-1.72 0 l0 4.58 l-3.22 0 l0 -14 l4.98 0 c3.14 0 5.22 1.9 5.22 4.82 c0 1.86 -0.88 3.26 -2.36 3.98 l3.36 5.2 l-3.4 0 z M16.52 8.96 l0 3.72 l1.56 0 c1.3 0 2.2 -0.46 2.2 -1.86 c0 -1.38 -0.9 -1.86 -2.2 -1.86 l-1.56 0 z M33.28 5.800000000000001 c3.96 0 7.28 2.94 7.28 7.2 s-3.32 7.2 -7.28 7.2 s-7.28 -2.94 -7.28 -7.2 s3.32 -7.2 7.28 -7.2 z M33.28 17.18 c2.26 0 3.94 -1.76 3.94 -4.18 s-1.68 -4.18 -3.94 -4.18 s-3.92 1.76 -3.92 4.18 s1.66 4.18 3.92 4.18 z M47.88 6 c3.96 0 7.1 3.12 7.1 6.9 c0 3.98 -3.14 7.1 -7.1 7.1 l-5.2 0 l0 -14 l5.2 0 z M47.86000000000001 16.96 c2.54 0 3.82 -1.84 3.82 -4.06 c0 -2.02 -1.28 -3.86 -3.82 -3.86 l-1.96 0 l0 7.92 l1.96 0 z M64.74000000000001 6 l3.22 0 l0 8.92 c0 3.38 -2.52 5.38 -5.48 5.38 c-2.98 0 -5.5 -2 -5.5 -5.38 l0 -8.92 l3.22 0 l0 8.94 c0 1.92 1.3 2.34 2.28 2.34 s2.26 -0.42 2.26 -2.34 l0 -8.94 z M79.39999999999999 20 l-4.1 -5.86 l-1.62 1.86 l0 4 l-3.32 0 l0 -14 l3.32 0 l0 5.74 l4.78 -5.74 l3.96 0 l-5.14 5.88 l5.82 8.12 l-3.7 0 z M94.41999999999999 6 l0 2.96 l-3.4 0 l0 11.04 l-3.22 0 l0 -11.04 l-3.4 0 l0 -2.96 l10.02 0 z M109.74 6 l-5.36 8.16 l0 5.84 l-3.22 0 l0 -5.84 l-5.34 -8.16 l3.64 0 l3.32 5.24 l3.32 -5.24 l3.64 0 z M131.12 6 l-4.62 14 l-2.34 0 l-3.14 -8.36 l-3.12 8.36 l-2.34 0 l-4.62 -14 l3.4 0 l2.52 7.76 l2.88 -7.76 l2.56 0 l2.9 7.76 l2.52 -7.76 l3.4 0 z M141.94 6 l3.22 0 l0 14 l-2.46 0 l-6.56 -8.14 l0 8.14 l-3.22 0 l0 -14 l2.5 0 l6.52 8.14 l0 -8.14 z M160.88000000000002 6 l-5.36 8.16 l0 5.84 l-3.22 0 l0 -5.84 l-5.34 -8.16 l3.64 0 l3.32 5.24 l3.32 -5.24 l3.64 0 z M179.4 6 l-6.14 11.24 l6.22 0 l0 2.76 l-11.3 0 l6.14 -11.24 l-5.8 0 l0 -2.76 l10.88 0 z"></path></g><g id="SvgjsG1000" featurekey="ewgXDI-1" transform="matrix(2.307869738614454,0,0,2.307869738614454,-2.7694437963851497,12.614352874888851)" fill="#1d6f42"><path d="M4.42 17.04 l5.74 0 l0 2.96 l-6.14 0 l-2.82 0 l0 -14 l3.22 0 l5.56 0 l0 2.96 l-5.56 0 l0 2.54 l4.16 0 l0 2.9 l-4.16 0 l0 2.64 z M24.48 20 l-3.8 0 l-2.78 -4.18 l-2.74 4.18 l-3.8 0 l4.62 -7.04 l-4.62 -6.96 l3.8 0 l2.72 4.08 l2.68 -4.08 l3.8 0 l-4.58 6.96 z M38.2 18.5 c-1.26 1.12 -2.9 1.7 -4.8 1.7 c-3.96 0 -7.32 -2.94 -7.32 -7.2 s3.36 -7.2 7.32 -7.2 c1.88 0 3.5 0.6 4.72 1.66 l-1.94 2.18 c-0.7 -0.48 -1.64 -0.82 -2.58 -0.82 c-2.46 0 -4.16 1.76 -4.16 4.18 s1.7 4.18 4.16 4.18 c0.98 0 1.98 -0.38 2.68 -0.94 z M43.32 17.04 l5.74 0 l0 2.96 l-6.14 0 l-2.82 0 l0 -14 l3.22 0 l5.56 0 l0 2.96 l-5.56 0 l0 2.54 l4.16 0 l0 2.9 l-4.16 0 l0 2.64 z M54.38 17.04 l5.32 0 l0 2.96 l-8.54 0 l0 -14 l3.22 0 l0 11.04 z M64.92 17.04 l5.74 0 l0 2.96 l-6.14 0 l-2.82 0 l0 -14 l3.22 0 l5.56 0 l0 2.96 l-5.56 0 l0 2.54 l4.16 0 l0 2.9 l-4.16 0 l0 2.64 z M87.86 6 l0 14 l-3.32 0 l0 -6.76 l-2.86 6.76 l-2.78 0 l-2.82 -6.72 l0 6.72 l-3.32 0 l0 -14 l3.18 0 l4.38 9.72 l4.36 -9.72 l3.18 0 z"></path></g>
			</g>
		</svg><style>@media (prefers-color-scheme: light) { :root { filter: none; } }
</style></svg>